# xmcd CD database file
# Copyright (C) 1997 Ti Kan
# 
# Track frame offsets:
#     182
#     10855
#     30762
#     44985
#     67050
#     85090
#     106485
#     121612
#     139495
#     153302
# 
# Disc length: 2236 seconds
# 
# Revision: 1
# Processed by: cddbd v1.4b41PL1 Copyright (c) Steve Scherf et al.
# Submitted via: DiscPlay 4.0.3
# 
DISCID=7f08ba0a
DTITLE=Cathedral Quartet - High And Lifted Up
DYEAR=1900
DGENRE=
TTITLE0=A Comfort To Know
TTITLE1=Death Has Died
TTITLE2=Jesus Has Risen
TTITLE3=At The Name Of Jesus
TTITLE4=Come Home
TTITLE5=High And Lifted Up
TTITLE6=Jesus Saves
TTITLE7=I Thirst
TTITLE8=Everyday, Every Hour
TTITLE9=I'd Like To Say It Again
EXTD=
EXTT0=
EXTT1=
EXTT2=
EXTT3=
EXTT4=
EXTT5=
EXTT6=
EXTT7=
EXTT8=
EXTT9=
PLAYORDER=
